<mxfile host="Electron" modified="2023-05-29T14:22:37.032Z" agent="Mozilla/5.0 (Windows NT 10.0; Win64; x64) AppleWebKit/537.36 (KHTML, like Gecko) draw.io/21.2.8 Chrome/112.0.5615.165 Electron/24.2.0 Safari/537.36" etag="khix4TkriVChybpr1Rfw" version="21.2.8" type="device">
  <diagram name="Page-1" id="Q4-CxTQ7Mwha1XIJfNH5">
    <mxGraphModel dx="1886" dy="614" grid="1" gridSize="10" guides="1" tooltips="1" connect="1" arrows="1" fold="1" page="1" pageScale="1" pageWidth="850" pageHeight="1100" math="0" shadow="0">
      <root>
        <mxCell id="0" />
        <mxCell id="1" parent="0" />
        <mxCell id="rW7r-VvlKTY-Xvo0AwC7-12" style="rounded=0;orthogonalLoop=1;jettySize=auto;html=1;exitX=0;exitY=0.5;exitDx=0;exitDy=0;entryX=1;entryY=0.5;entryDx=0;entryDy=0;strokeWidth=2;" edge="1" parent="1" source="t9POVJm5YxXZwowacQ9W-9" target="rW7r-VvlKTY-Xvo0AwC7-3">
          <mxGeometry relative="1" as="geometry" />
        </mxCell>
        <mxCell id="t9POVJm5YxXZwowacQ9W-9" value="&amp;nbsp;" style="html=1;whiteSpace=wrap;strokeColor=none;fillColor=none;strokeWidth=2;" parent="1" vertex="1">
          <mxGeometry x="80" y="205" width="80" height="120" as="geometry" />
        </mxCell>
        <mxCell id="t9POVJm5YxXZwowacQ9W-1" value="user" style="shape=umlActor;verticalLabelPosition=bottom;verticalAlign=top;html=1;strokeWidth=2;" parent="1" vertex="1">
          <mxGeometry x="105" y="235" width="30" height="60" as="geometry" />
        </mxCell>
        <mxCell id="t9POVJm5YxXZwowacQ9W-2" value="Мобильное приложение" style="html=1;whiteSpace=wrap;rounded=1;strokeWidth=2;fontStyle=1;verticalAlign=top;" parent="1" vertex="1">
          <mxGeometry x="180" y="40" width="200" height="430" as="geometry" />
        </mxCell>
        <mxCell id="t9POVJm5YxXZwowacQ9W-3" value="Создание заказа" style="ellipse;whiteSpace=wrap;html=1;fontStyle=1;strokeWidth=2;" parent="1" vertex="1">
          <mxGeometry x="210" y="70" width="140" height="70" as="geometry" />
        </mxCell>
        <mxCell id="t9POVJm5YxXZwowacQ9W-4" value="Просмотр списка заказов" style="ellipse;whiteSpace=wrap;html=1;fontStyle=1;strokeWidth=2;" parent="1" vertex="1">
          <mxGeometry x="210" y="150" width="140" height="70" as="geometry" />
        </mxCell>
        <mxCell id="t9POVJm5YxXZwowacQ9W-5" value="Просмотр заказа&lt;br&gt;по id" style="ellipse;whiteSpace=wrap;html=1;fontStyle=1;strokeWidth=2;" parent="1" vertex="1">
          <mxGeometry x="210" y="230" width="140" height="70" as="geometry" />
        </mxCell>
        <mxCell id="t9POVJm5YxXZwowacQ9W-6" value="Отмена заказа&lt;br&gt;по id" style="ellipse;whiteSpace=wrap;html=1;fontStyle=1;strokeWidth=2;" parent="1" vertex="1">
          <mxGeometry x="210" y="310" width="140" height="70" as="geometry" />
        </mxCell>
        <mxCell id="t9POVJm5YxXZwowacQ9W-10" style="rounded=0;orthogonalLoop=1;jettySize=auto;html=1;exitX=1;exitY=0.5;exitDx=0;exitDy=0;entryX=0;entryY=0.5;entryDx=0;entryDy=0;strokeWidth=2;" parent="1" source="t9POVJm5YxXZwowacQ9W-9" target="t9POVJm5YxXZwowacQ9W-3" edge="1">
          <mxGeometry relative="1" as="geometry" />
        </mxCell>
        <mxCell id="t9POVJm5YxXZwowacQ9W-11" style="rounded=0;orthogonalLoop=1;jettySize=auto;html=1;exitX=1;exitY=0.5;exitDx=0;exitDy=0;entryX=0;entryY=0.5;entryDx=0;entryDy=0;strokeWidth=2;" parent="1" source="t9POVJm5YxXZwowacQ9W-9" target="t9POVJm5YxXZwowacQ9W-4" edge="1">
          <mxGeometry relative="1" as="geometry" />
        </mxCell>
        <mxCell id="t9POVJm5YxXZwowacQ9W-12" style="rounded=0;orthogonalLoop=1;jettySize=auto;html=1;exitX=1;exitY=0.5;exitDx=0;exitDy=0;entryX=0;entryY=0.5;entryDx=0;entryDy=0;strokeWidth=2;" parent="1" source="t9POVJm5YxXZwowacQ9W-9" target="t9POVJm5YxXZwowacQ9W-5" edge="1">
          <mxGeometry relative="1" as="geometry" />
        </mxCell>
        <mxCell id="t9POVJm5YxXZwowacQ9W-13" style="rounded=0;orthogonalLoop=1;jettySize=auto;html=1;exitX=1;exitY=0.5;exitDx=0;exitDy=0;entryX=0;entryY=0.5;entryDx=0;entryDy=0;strokeWidth=2;" parent="1" source="t9POVJm5YxXZwowacQ9W-9" target="t9POVJm5YxXZwowacQ9W-6" edge="1">
          <mxGeometry relative="1" as="geometry" />
        </mxCell>
        <mxCell id="rW7r-VvlKTY-Xvo0AwC7-1" value="Запрос excel&lt;br&gt;счёт-фактуры" style="ellipse;whiteSpace=wrap;html=1;fontStyle=1;strokeWidth=2;" vertex="1" parent="1">
          <mxGeometry x="210" y="390" width="140" height="70" as="geometry" />
        </mxCell>
        <mxCell id="rW7r-VvlKTY-Xvo0AwC7-2" style="rounded=0;orthogonalLoop=1;jettySize=auto;html=1;exitX=1;exitY=0.5;exitDx=0;exitDy=0;entryX=0;entryY=0.5;entryDx=0;entryDy=0;strokeWidth=2;" edge="1" parent="1" source="t9POVJm5YxXZwowacQ9W-9" target="rW7r-VvlKTY-Xvo0AwC7-1">
          <mxGeometry relative="1" as="geometry" />
        </mxCell>
        <mxCell id="rW7r-VvlKTY-Xvo0AwC7-3" value="Мобильное приложение" style="html=1;whiteSpace=wrap;rounded=1;strokeWidth=2;fontStyle=1;verticalAlign=top;" vertex="1" parent="1">
          <mxGeometry x="-310" y="95" width="340" height="340" as="geometry" />
        </mxCell>
        <mxCell id="rW7r-VvlKTY-Xvo0AwC7-4" value="Получение списка избранных" style="ellipse;whiteSpace=wrap;html=1;fontStyle=1;strokeWidth=2;" vertex="1" parent="1">
          <mxGeometry x="-130" y="125" width="140" height="70" as="geometry" />
        </mxCell>
        <mxCell id="rW7r-VvlKTY-Xvo0AwC7-5" value="Добавление товара&lt;br&gt;в исзбранные" style="ellipse;whiteSpace=wrap;html=1;fontStyle=1;strokeWidth=2;" vertex="1" parent="1">
          <mxGeometry x="-130" y="205" width="140" height="70" as="geometry" />
        </mxCell>
        <mxCell id="rW7r-VvlKTY-Xvo0AwC7-6" value="Удаление товара&lt;br&gt;из избранных" style="ellipse;whiteSpace=wrap;html=1;fontStyle=1;strokeWidth=2;" vertex="1" parent="1">
          <mxGeometry x="-130" y="280" width="140" height="70" as="geometry" />
        </mxCell>
        <mxCell id="rW7r-VvlKTY-Xvo0AwC7-7" value="Просмотр номенклатуры по списку id" style="ellipse;whiteSpace=wrap;html=1;fontStyle=1;strokeWidth=2;" vertex="1" parent="1">
          <mxGeometry x="-130" y="355" width="140" height="70" as="geometry" />
        </mxCell>
        <mxCell id="rW7r-VvlKTY-Xvo0AwC7-8" value="Просмотр номенклатуры по списку моделей" style="ellipse;whiteSpace=wrap;html=1;fontStyle=1;strokeWidth=2;" vertex="1" parent="1">
          <mxGeometry x="-290" y="355" width="140" height="70" as="geometry" />
        </mxCell>
        <mxCell id="rW7r-VvlKTY-Xvo0AwC7-9" value="Получение корзины товаров" style="ellipse;whiteSpace=wrap;html=1;fontStyle=1;strokeWidth=2;" vertex="1" parent="1">
          <mxGeometry x="-290" y="125" width="140" height="70" as="geometry" />
        </mxCell>
        <mxCell id="rW7r-VvlKTY-Xvo0AwC7-10" value="Добавление товара в корзину" style="ellipse;whiteSpace=wrap;html=1;fontStyle=1;strokeWidth=2;" vertex="1" parent="1">
          <mxGeometry x="-290" y="205" width="140" height="70" as="geometry" />
        </mxCell>
        <mxCell id="rW7r-VvlKTY-Xvo0AwC7-11" value="Удаление товара из корзины" style="ellipse;whiteSpace=wrap;html=1;fontStyle=1;strokeWidth=2;" vertex="1" parent="1">
          <mxGeometry x="-290" y="280" width="140" height="70" as="geometry" />
        </mxCell>
      </root>
    </mxGraphModel>
  </diagram>
</mxfile>
